<svg xmlns="http://www.w3.org/2000/svg" viewBox="0 0 120 120">
  <rect width="120" height="120" rx="24" fill="#223F93"/>
  <g transform="translate(20.2, 18) scale(0.215)">
    <path d="M185.038 77.918C162.621 77.942 144.384 96.185 144.372 118.607C144.382 136.031 155.422 150.887 170.856 156.67V305.245H199.225V156.671C214.663 150.888 225.707 136.031 225.724 118.608C225.703 96.184 207.46 77.942 185.038 77.918ZM185.043 130.9C178.268 130.896 172.747 125.372 172.747 118.607C172.747 111.833 178.262 106.318 185.037 106.303C191.816 106.318 197.337 111.832 197.337 118.607C197.337 125.372 191.811 130.896 185.043 130.9ZM349.766 22.16C336.469 8.72897 317.174 0.943 295.071 0H74.715C52.613 0.943 33.319 8.72897 20.021 22.16C7.09602 35.134 -0.0149763 52.521 2.36824e-05 71.128C2.36824e-05 87.589 5.66601 103.074 15.951 114.726C26.651 126.955 42.597 134.172 59.95 134.713C63.415 134.798 81.128 134.812 97.081 127.028V311.413C81.642 317.196 70.595 332.056 70.585 349.48C70.597 371.898 88.841 390.139 111.255 390.156C133.679 390.139 151.919 371.898 151.935 349.48C151.923 332.055 140.88 317.2 125.443 311.417V58.449H244.589V211.559C229.155 217.342 218.114 232.193 218.105 249.622C218.118 272.053 236.357 290.295 258.779 290.295C281.193 290.295 299.431 272.053 299.453 249.622C299.437 232.193 288.39 217.338 272.957 211.559V127.147C288.846 134.809 306.393 134.797 309.84 134.712C327.192 134.171 343.138 126.953 353.838 114.725C364.123 103.074 369.789 87.588 369.789 71.127C369.801 52.521 362.692 35.134 349.766 22.16ZM111.261 361.782C104.487 361.763 98.965 356.247 98.959 349.491C98.965 342.705 104.486 337.187 111.254 337.187C118.024 337.187 123.543 342.709 123.559 349.476C123.543 356.247 118.016 361.764 111.261 361.782ZM258.786 261.931C252.005 261.917 246.483 256.392 246.483 249.622C246.483 242.843 252.004 237.334 258.778 237.334C265.542 237.334 271.063 242.847 271.079 249.612C271.063 256.386 265.542 261.917 258.786 261.931ZM332.597 95.914C326.347 102.87 318.107 106.295 307.41 106.378C288.412 106.165 281.539 100.531 277.324 95.052C275.131 92.123 273.783 88.628 272.955 85.317V58.45H300.57C303.603 58.45 306.808 59.782 307.015 59.87C308.813 60.684 310.429 61.838 311.277 63.098C311.993 64.174 312.539 65.34 312.574 67.815C312.523 70.481 311.668 72.002 310.269 73.352C308.873 74.643 306.746 75.487 304.64 75.471C301.994 75.386 299.636 74.504 297.46 71.373C294.728 67.264 289.187 66.153 285.077 68.885C282.002 70.933 280.603 74.56 281.247 77.978C287.59 93.654 305.199 93.329 305.415 93.324C311.64 93.133 317.642 90.795 322.325 86.535C327.213 82.137 330.485 75.362 330.436 67.815C330.47 61.991 328.678 56.727 325.883 52.813C323.102 48.875 319.584 46.292 316.354 44.568C310.887 41.694 306.067 40.887 304.242 40.68H66.514C64.69 40.887 59.868 41.694 54.402 44.568C51.173 46.293 47.654 48.875 44.873 52.813C42.079 56.727 40.286 61.991 40.321 67.815C40.272 75.362 43.544 82.136 48.431 86.535C53.116 90.795 59.116 93.133 65.342 93.324C65.557 93.329 83.167 93.654 89.51 77.978C90.153 74.56 88.754 70.933 85.68 68.885C81.57 66.154 76.028 67.264 73.296 71.373C71.119 74.504 68.762 75.386 66.117 75.471C64.011 75.487 61.884 74.643 60.488 73.352C59.09 72.001 58.232 70.481 58.182 67.815C58.216 65.34 58.763 64.174 59.479 63.098C60.327 61.838 61.943 60.685 63.741 59.87C63.949 59.782 67.152 58.45 70.185 58.45H97.08V84.257C96.283 87.871 94.891 91.81 92.463 95.053C88.248 100.532 81.375 106.166 62.375 106.379C51.68 106.296 43.439 102.871 37.19 95.915C31.563 89.595 28.351 80.556 28.371 71.129C28.379 60.046 32.544 49.776 40.101 42.199C49.323 33.015 62.602 28.34 79.568 28.291H290.218C307.183 28.34 320.462 33.016 329.684 42.199C337.242 49.776 341.407 60.046 341.415 71.129C341.435 80.555 338.223 89.594 332.597 95.914Z" fill="#FFBD6E"/>
  </g>
</svg>
